<svg xmlns="http://www.w3.org/2000/svg" viewBox="0 0 512 512">
  <defs>
    <linearGradient id="bg" x1="0%" y1="0%" x2="100%" y2="100%">
      <stop offset="0%" stop-color="#0f2027"/>
      <stop offset="50%" stop-color="#203a43"/>
      <stop offset="100%" stop-color="#2c5364"/>
    </linearGradient>
    <linearGradient id="accent" x1="0%" y1="0%" x2="100%" y2="100%">
      <stop offset="0%" stop-color="#a8edea"/>
      <stop offset="100%" stop-color="#fed6e3"/>
    </linearGradient>
  </defs>
  <rect width="512" height="512" rx="96" fill="url(#bg)"/>
  <!-- Microscope body -->
  <g fill="url(#accent)">
    <!-- Eyepiece -->
    <rect x="232" y="80" width="48" height="40" rx="8"/>
    <!-- Tube -->
    <rect x="244" y="120" width="24" height="120" rx="4"/>
    <!-- Objective -->
    <rect x="236" y="240" width="40" height="24" rx="6"/>
    <!-- Stage -->
    <rect x="188" y="290" width="136" height="16" rx="4"/>
    <!-- Stage clips -->
    <rect x="196" y="282" width="12" height="8" rx="2"/>
    <rect x="304" y="282" width="12" height="8" rx="2"/>
    <!-- Arm -->
    <path d="M268 160 Q320 160 320 210 L320 310 Q320 330 300 330 L280 330 L280 310 L300 310 L300 210 Q300 180 268 180 Z" opacity="0.5"/>
    <!-- Pillar -->
    <rect x="244" y="306" width="24" height="80" rx="4"/>
    <!-- Base -->
    <rect x="180" y="380" width="152" height="20" rx="10"/>
  </g>
  <!-- Decorative atom orbit -->
  <ellipse cx="256" cy="200" rx="100" ry="36" fill="none" stroke="#a8edea" stroke-width="2.5" opacity="0.3" transform="rotate(-30 256 200)"/>
  <ellipse cx="256" cy="200" rx="100" ry="36" fill="none" stroke="#fed6e3" stroke-width="2.5" opacity="0.3" transform="rotate(30 256 200)"/>
</svg>
